<?xml version="1.0" encoding="UTF-8" standalone="no"?>
<!-- Generator: Adobe Illustrator 19.0.0, SVG Export Plug-In . SVG Version: 6.00 Build 0)  -->

<svg
   xmlns:dc="http://purl.org/dc/elements/1.1/"
   xmlns:cc="http://creativecommons.org/ns#"
   xmlns:rdf="http://www.w3.org/1999/02/22-rdf-syntax-ns#"
   xmlns:svg="http://www.w3.org/2000/svg"
   xmlns="http://www.w3.org/2000/svg"
   xmlns:sodipodi="http://sodipodi.sourceforge.net/DTD/sodipodi-0.dtd"
   xmlns:inkscape="http://www.inkscape.org/namespaces/inkscape"
   version="1.1"
   x="0px"
   y="0px"
   viewBox="125.3 21 99.999997 100"
   xml:space="preserve"
   id="svg2"
   inkscape:version="0.91 r13725"
   sodipodi:docname="1-bezpieczne-zakupy.svg"
   width="100"
   height="100"><metadata
     id="metadata823"><rdf:RDF><cc:Work
         rdf:about=""><dc:format>image/svg+xml</dc:format><dc:type
           rdf:resource="http://purl.org/dc/dcmitype/StillImage" /><dc:title></dc:title></cc:Work></rdf:RDF></metadata><defs
     id="defs821" /><sodipodi:namedview
     pagecolor="#ffffff"
     bordercolor="#666666"
     borderopacity="1"
     objecttolerance="10"
     gridtolerance="10"
     guidetolerance="10"
     inkscape:pageopacity="0"
     inkscape:pageshadow="2"
     inkscape:window-width="1920"
     inkscape:window-height="1017"
     id="namedview819"
     showgrid="false"
     inkscape:zoom="3.3815036"
     inkscape:cx="1.2980772"
     inkscape:cy="46.925105"
     inkscape:window-x="-8"
     inkscape:window-y="-8"
     inkscape:window-maximized="1"
     inkscape:current-layer="svg2"
     borderlayer="false" /><g
     id="g_klodka"
     transform="translate(-7.4499969,1.449981)"><path
       style="fill:none;fill-rule:evenodd;stroke:#9cb732;stroke-width:7;stroke-linecap:round;stroke-linejoin:round;stroke-miterlimit:10"
       inkscape:connector-curvature="0"
       id="klodka_3"
       d="m 212.3,68 0,19.7 0,6.5 0,13.1 c 0,3.7 -3,6.8 -6.8,6.8 l -45.5,0 c -3.7,0 -6.8,-3 -6.8,-6.8 l 0,-13.1"
       class="st71" /><path
       style="fill:none;fill-rule:evenodd;stroke:#1d1d1e;stroke-width:6.99992418;stroke-linecap:round;stroke-linejoin:round;stroke-miterlimit:10;stroke-dasharray:none"
       inkscape:connector-curvature="0"
       id="klodka_1"
       d="m 199.9,58.7 0,-16.1 c 0,-9.8 -7.8,-17.6 -17.6,-17.6 -9.8,0 -17.6,7.8 -17.6,17.6 l 0,16.1"
       class="st70" /><line
       style="fill:none;fill-rule:evenodd;stroke:#9cb732;stroke-width:5;stroke-linecap:round;stroke-linejoin:round;stroke-miterlimit:10"
       id="klodka_c"
       y2="91.800003"
       x2="182.3"
       y1="82.5"
       x1="182.3"
       class="st73" /><path
       style="fill:none;fill-rule:evenodd;stroke:#4d4d4d;stroke-width:7;stroke-linecap:round;stroke-linejoin:round;stroke-miterlimit:10"
       inkscape:connector-curvature="0"
       id="klodka_2"
       d="m 153.2,91.8 0,-7.6 0,-16.2 c 0,-3.7 3,-6.8 6.8,-6.8 l 45.5,0 c 3.7,0 6.8,3 6.8,6.8 l 0,22.8"
       class="st69" /></g></svg>