<?xml version="1.0" encoding="UTF-8" standalone="no"?>
<!-- Created with Inkscape (http://www.inkscape.org/) -->

<svg
   xmlns:dc="http://purl.org/dc/elements/1.1/"
   xmlns:cc="http://creativecommons.org/ns#"
   xmlns:rdf="http://www.w3.org/1999/02/22-rdf-syntax-ns#"
   xmlns:svg="http://www.w3.org/2000/svg"
   xmlns="http://www.w3.org/2000/svg"
   xmlns:sodipodi="http://sodipodi.sourceforge.net/DTD/sodipodi-0.dtd"
   xmlns:inkscape="http://www.inkscape.org/namespaces/inkscape"
   width="100"
   height="100"
   viewBox="0 0 99.999997 99.999997"
   id="svg2"
   version="1.1"
   inkscape:version="0.91 r13725"
   sodipodi:docname="5-gwarancja-wsparcia-serwisowego1.svg">
  <defs
     id="defs4" />
  <sodipodi:namedview
     id="base"
     pagecolor="#ffffff"
     bordercolor="#666666"
     borderopacity="1.0"
     inkscape:pageopacity="0.0"
     inkscape:pageshadow="2"
     inkscape:zoom="2.8"
     inkscape:cx="18.791439"
     inkscape:cy="47.798141"
     inkscape:document-units="px"
     inkscape:current-layer="layer1"
     showgrid="false"
     fit-margin-bottom="-0.2"
     fit-margin-top="0"
     fit-margin-left="0"
     fit-margin-right="0"
     units="px"
     inkscape:window-width="1920"
     inkscape:window-height="1017"
     inkscape:window-x="-8"
     inkscape:window-y="-8"
     inkscape:window-maximized="1" />
  <metadata
     id="metadata7">
    <rdf:RDF>
      <cc:Work
         rdf:about="">
        <dc:format>image/svg+xml</dc:format>
        <dc:type
           rdf:resource="http://purl.org/dc/dcmitype/StillImage" />
        <dc:title></dc:title>
      </cc:Work>
    </rdf:RDF>
  </metadata>
  <g
     inkscape:label="Layer 1"
     inkscape:groupmode="layer"
     id="layer1"
     transform="translate(394.153,-533.08212)">
    <g
       id="gwarancja_wsparcia"
       transform="matrix(1.0471208,0,0,1.0471208,-529.7931,509.20776)">
      <g
         id="g675">
        <rect
           x="135.3"
           y="24.700001"
           class="st75"
           width="84.199997"
           height="91.900002"
           id="rect677"
           style="fill:none" />
        <path
           class="st74"
           d="M 214.3,75.2 C 218,63.8 218.8,51 216.5,37.1 205.6,30.5 191,26.3 177.1,26.3 c -8,0 -16.5,1.5 -24.3,4"
           id="path679"
           inkscape:connector-curvature="0"
           style="fill:none;stroke:#9cb732;stroke-width:7;stroke-linecap:round;stroke-linejoin:round;stroke-miterlimit:10" />
        <rect
           x="135.3"
           y="24.700001"
           class="st75"
           width="84.199997"
           height="91.900002"
           id="rect681"
           style="fill:none" />
        <path
           class="st72"
           d="m 164.4,90.5 -9,9.2 c 6.1,6.2 13.5,11.3 22,15.1 18.5,-8.1 31.3,-22 37.1,-40.3 M 153.1,30.2 c -5.5,1.8 -10.4,4 -15.1,6.7 -3.1,19 -0.2,35.9 7.6,49.7 l 14.8,-15.5"
           id="path683"
           inkscape:connector-curvature="0"
           style="fill:none;stroke:#4d4d4d;stroke-width:7;stroke-linecap:round;stroke-linejoin:round;stroke-miterlimit:10" />
        <rect
           x="135.3"
           y="24.700001"
           class="st75"
           width="84.199997"
           height="91.900002"
           id="rect685"
           style="fill:none" />
        <path
           class="st73"
           d="m 160,71.5 5.3,-6 c -2.2,-6.7 -0.8,-14.6 4.3,-20 4.3,-4.5 10.6,-6.4 16.4,-5.4 1.3,0.3 1.8,2 0.8,2.9 l -8.2,8.7 c -1.4,1.5 -1.3,3.9 0.3,5.2 l 6.1,6.4 c 1.4,1.5 3.9,1.5 5,0.3 l 8.5,-8.7 c 0.8,-0.8 2.6,-0.3 2.7,0.8 1,6 -0.8,12.4 -5.1,17 -5.1,5.4 -12.7,6.9 -19.3,4.5 l -13,13.6"
           id="path687"
           inkscape:connector-curvature="0"
           style="fill:none;stroke:#1d1d1e;stroke-width:7;stroke-linecap:round;stroke-linejoin:round;stroke-miterlimit:10" />
      </g>
    </g>
  </g>
</svg>
