<?xml version="1.0" encoding="utf-8"?>
<!-- Generator: Adobe Illustrator 19.0.1, SVG Export Plug-In . SVG Version: 6.00 Build 0)  -->
<svg version="1.1" id="Warstwa_1" xmlns="http://www.w3.org/2000/svg" xmlns:xlink="http://www.w3.org/1999/xlink" x="0px" y="0px"
	 viewBox="0 0 300 300" style="enable-background:new 0 0 300 300;" xml:space="preserve">
<style type="text/css">
	.st0{fill:none;stroke:#9cb732;stroke-width:19;stroke-miterlimit:10;}
	.st1{fill:none;stroke:#9cb732;stroke-width:19;stroke-linecap:round;stroke-linejoin:round;stroke-miterlimit:10;}
	.st2{fill:none;stroke:#4D4D4D;stroke-width:19;stroke-linecap:round;stroke-linejoin:round;stroke-miterlimit:10;}
	.st3{fill:none;stroke:#1D1D1E;stroke-width:19;stroke-linecap:round;stroke-linejoin:round;stroke-miterlimit:10;}
	.st4{fill:#4D4D4D;}
</style>
<circle class="st0" cx="150" cy="107.1" r="96"/>
<line class="st1" x1="101.3" y1="189.8" x2="101.3" y2="289"/>
<line class="st1" x1="150.4" y1="240" x2="101.3" y2="289"/>
<line class="st1" x1="199.4" y1="189.8" x2="199.4" y2="289"/>
<line class="st1" x1="150.4" y1="240" x2="199.4" y2="289"/>
<path class="st2" d="M150.7,203c-53,0-96-43-96-96s43-96,96-96c32,0,60.3,15.6,77.7,39.7"/>
<line class="st2" x1="101.3" y1="189.8" x2="101.3" y2="289"/>
<line class="st2" x1="138" y1="252.3" x2="101.3" y2="289"/>
<path class="st2" d="M200.1,289"/>
<path class="st2" d="M135,256"/>
<path class="st3" d="M127.3,200.3c-1.9-0.5-3.7-1-5.5-1.5c-39.2-12-67.8-48.6-67.8-91.8c0-53,43-96,96-96"/>
<line class="st3" x1="101.3" y1="189.8" x2="101.3" y2="231.5"/>
<g>
	<path class="st4" d="M159,69.1v81.3c0,3.1-2.3,5.5-5.3,5.5c-2.9,0-5.3-2.5-5.3-5.5V77.9l-16.3,9c-2.6,1.6-5.9,0.8-7.3-1.8
		c-1.4-2.5-0.4-6,2.1-7.3l23.9-13.4c0.9-0.5,2-0.8,2.9-0.8C156.8,63.6,159,66.2,159,69.1z"/>
</g>
</svg>
