<?xml version="1.0" encoding="utf-8"?>
<!-- Generator: Adobe Illustrator 16.0.0, SVG Export Plug-In . SVG Version: 6.00 Build 0)  -->
<!DOCTYPE svg PUBLIC "-//W3C//DTD SVG 1.0//EN" "http://www.w3.org/TR/2001/REC-SVG-20010904/DTD/svg10.dtd">
<svg version="1.0" id="Layer_1" xmlns="http://www.w3.org/2000/svg" xmlns:xlink="http://www.w3.org/1999/xlink" x="0px" y="0px"
	 width="231px" height="346px" viewBox="0 0 231 346" enable-background="new 0 0 231 346" xml:space="preserve">
<path fill="#9CB732" d="M165.547,150.046c29.938-0.678,42.301-6.872,55.855-18.828c0.451-0.396,0.699-0.973,0.678-1.571
	c-0.021-0.6-0.311-1.157-0.787-1.521c-21.471-16.354-60.744-11.628-84.818,2.125c-7.09,4.05-15.221,7.479-21.608,9.908
	c-7.3-2.49-13.355-5.777-18.222-9.85c0.959-4.374,2.192-12.383,2.296-12.952c0.095-0.516,9.229-52.013-10.367-93.001
	c-0.34-0.711-1.107-1.157-1.854-1.137c-0.789,0.021-1.491,0.5-1.797,1.227c-13.16,31.419-14.518,60.818-4.148,89.879
	c4.543,12.739,13.908,22.022,28.307,27.938c-3.262,1.137-5.334,1.771-5.396,1.789c-0.577,0.176-1.045,0.604-1.271,1.163
	c-0.226,0.559-0.188,1.192,0.104,1.721l7.971,14.373c-6.602,1.215-12.494,6.101-15.855,13.354c-0.679,1.47-5.32,5.229-10.235,9.215
	c-17.657,14.31-50.522,40.94-47.603,73.438c3.686,40.99,32.42,65.463,76.865,65.463c44.799,0,72.097-23.229,76.864-65.415
	c3.679-32.562-27.215-56.914-45.67-71.464c-6.187-4.875-11.523-9.086-12.633-11.396c-0.412-0.857-12.589-9.88-16.597-12.061
	c-0.041-0.136-0.087-0.271-0.158-0.397l-8.27-14.912c1.803-0.591,4.52-1.515,7.771-2.726
	C128.198,148.651,145.025,150.514,165.547,150.046z"/>
</svg>
